<svg width="120" height="100" viewBox="0 0 120 100" fill="none" xmlns="http://www.w3.org/2000/svg">
<g clip-path="url(#clip0_41_2)">
<path d="M62.2 65.2L60 58.4L57.8 65.2H50.5L56.4 69.4L54.1 76.2L60 72L65.9 76.2L63.6 69.4L69.5 65.2H62.2Z" fill="#14142B"/>
<path d="M42.3 64.1L40.4 58.4L38.5 64.1H32.4L37.3 67.6L35.5 73.3L40.4 69.8L45.3 73.3L43.4 67.6L48.4 64.1H42.3Z" fill="#14142B"/>
<path d="M24.8 63.2L23.2 58.4L21.6 63.2H16.5L20.6 66.2L19.1 71L23.2 68L27.4 71L25.8 66.2L30 63.2H24.8Z" fill="#14142B"/>
<path d="M81.5 64.1L79.6 58.4L77.7 64.1H71.6L76.6 67.6L74.7 73.3L79.6 69.8L84.5 73.3L82.7 67.6L87.6 64.1H81.5Z" fill="#14142B"/>
<path d="M98.4 63.2L96.8 58.4L95.2 63.2H90.1L94.2 66.2L92.6 71L96.8 68L100.9 71L99.3 66.2L103.5 63.2H98.4Z" fill="#14142B"/>
<path d="M87.2 49.5C86 47.5 84.8 40.6 89 36.3C90.9 40.3 91 44.9 87.2 49.5ZM47.6 46.6C45.7 46.6 43.8 44.4 43.8 41.9C43.8 39.4 46 37.1 47.6 37.1V46.6ZM37.1 46.8V47C36.1 47.5 34 48 34 43.3C34 38.6 34 44 34 41.2V29C34 26.1 31.1 25.1 29.5 25.1H27.4L23 29C23 26.2 20.3 25.1 18.6 25.1H16.4L12 28.9C12 26.1 8.8 25.1 7.6 25.1H5.5L0 29.9C0 29.9 4 29.5 4 34.4C4 39.3 4 49.7 4 52.4H12.1V30.7C13.8 30.7 15.1 31.1 15.1 33.2C15.1 36.1 15.1 52.4 15.1 52.4H23.1V30.8C24.6 30.8 26.1 31.1 26.1 33.1V46.5C26.1 54.6 32.6 52.5 32.6 52.5L37.8 47.9C38.6 49.2 41 52.4 44.7 52.4C46.7 50.5 47.2 50 47.8 49.5C48.6 51 50.6 53.5 53.8 52.4C57 49.4 58.3 48.2 58.3 48.2V52.3H65.6V39.3C67 39.3 68.7 39.3 68.7 41.3V47.6C68.7 51 71.3 53.1 75.3 52.6C75.3 52.6 77.7 50.3 79.8 48.4C81.3 50.4 84 52.9 88.4 52.6C92.7 52.3 98.6 47.9 97.2 37.9C98.2 37.9 99.5 37.6 99.5 39V47.7C99.5 47.7 100 53.4 105.9 52.5C107.1 51.4 108.6 49.9 109.8 48.8C110.6 50.5 112.2 52.2 115.9 52.4C116.8 51.6 118.8 49.8 120.1 48.5C120.1 48.5 116.8 49 116.8 45.4C116.8 43.7 116.8 32.5 116.8 32.5H109.5V47.4C108.3 48.5 106.8 49.5 106.8 46.4V35.4C106.7 33.6 105.2 32.1 102.8 31.7C101.9 32.5 96.8 37 96.8 37C96.5 36.2 96.2 35.4 96 34.9L85.6 31.9C82.7 33.4 76.8 37.3 79.2 47.4C78 48.7 76 49.5 76 46.9V36.2C76 34.5 74.9 32.3 72.1 32.1C71.9 32.3 65.7 37.8 65.7 37.8V29.9C65.6 26.9 64 23.8 60.5 23.8H59.9L54.4 28.6C54.4 28.6 58.4 28.2 58.4 33C58.4 37.8 58.4 46.7 58.4 46.7C57 48.1 55.1 49 55.1 46.1V32.8H47.7C44.6 32.7 34.8 35.2 37.1 46.4C37.1 46.5 37.1 46.6 37.1 46.7" fill="#14142B"/>
</g>
<defs>
<clipPath id="clip0_41_2">
<rect width="120" height="100" fill="white"/>
</clipPath>
</defs>
</svg>